/* XPM */
static char *ec9cf31756644cf79caba47a70b0bfd0j7Mn8QQZBHmi242V[] = {
/* columns rows colors chars-per-pixel */
"64 64 187 2 ",
"   c #003700",
".  c #003D00",
"X  c #5F0000",
"o  c #640000",
"O  c #6C0000",
"+  c #740000",
"@  c #7C0000",
"#  c #7D1500",
"$  c #472708",
"%  c #462D0A",
"&  c #4D2C0A",
"*  c #532E0B",
"=  c #592F0C",
"-  c #47310C",
";  c #49340D",
":  c #493A0E",
">  c #56310C",
",  c #5A340D",
"<  c #5D390E",
"1  c #60370D",
"2  c #60390E",
"3  c #4F3221",
"4  c #483D2D",
"5  c #533422",
"6  c #543925",
"7  c #5B3A25",
"8  c #553D2A",
"9  c #5B3D2A",
"0  c #613B26",
"q  c #633E29",
"w  c #004400",
"e  c #004C00",
"r  c #005300",
"t  c #005B00",
"y  c #006300",
"u  c #006B00",
"i  c #007300",
"p  c #007B00",
"a  c #2E4137",
"s  c #2F4639",
"d  c #31473D",
"f  c #314A3D",
"g  c #4C422E",
"h  c #54412D",
"j  c #5C412D",
"k  c #4D4332",
"l  c #524534",
"z  c #5B4432",
"x  c #554936",
"c  c #554739",
"v  c #564B3A",
"b  c #5B4D3C",
"n  c #57513D",
"m  c #5B513D",
"M  c #63432D",
"N  c #69442D",
"B  c #624733",
"V  c #684731",
"C  c #634936",
"Z  c #6A4B35",
"A  c #634C3B",
"S  c #6A4D39",
"D  c #66503F",
"F  c #6E513C",
"G  c #7E5439",
"H  c #334C43",
"J  c #345245",
"K  c #34544A",
"L  c #38544E",
"P  c #36594D",
"I  c #365652",
"U  c #365B54",
"Y  c #385C54",
"T  c #375C59",
"R  c #385B58",
"E  c #574F40",
"W  c #5B4F41",
"Q  c #575140",
"!  c #5D5241",
"~  c #645341",
"^  c #6D5441",
"/  c #6F5D44",
"(  c #625648",
")  c #705643",
"_  c #6F6249",
"`  c #75644C",
"'  c #78694F",
"]  c #7A694F",
"[  c #7A6B54",
"{  c #7F6D59",
"}  c #7F715A",
"|  c #840000",
" . c #8B0000",
".. c #940000",
"X. c #9D0000",
"o. c #821700",
"O. c #851800",
"+. c #8B1A00",
"@. c #911C00",
"#. c #A30000",
"$. c #AC0000",
"%. c #B30000",
"&. c #BC0000",
"*. c #972900",
"=. c #9B2B00",
"-. c #A32E00",
";. c #A53200",
":. c #AA3400",
">. c #AF3B00",
",. c #B53B00",
"<. c #B33D00",
"1. c #C40000",
"2. c #CC0000",
"3. c #D10000",
"4. c #D80000",
"5. c #B54100",
"6. c #BC4300",
"7. c #BF4800",
"8. c #BB5E00",
"9. c #BF6400",
"0. c #BD6C00",
"q. c #BE7000",
"w. c #84553B",
"e. c #89583D",
"r. c #C34500",
"t. c #C44B00",
"y. c #CA4C00",
"u. c #C65100",
"i. c #CC5200",
"p. c #D25300",
"a. c #C46400",
"s. c #C36B00",
"d. c #CB6D00",
"f. c #C37400",
"g. c #855C40",
"h. c #895B41",
"j. c #866243",
"k. c #896245",
"l. c #87664C",
"z. c #8A664B",
"x. c #806A4F",
"c. c #8D6A4D",
"v. c #95694B",
"b. c #926D4E",
"n. c #806D54",
"m. c #8C6B53",
"M. c #806E5A",
"N. c #936E52",
"B. c #817154",
"V. c #83735B",
"C. c #8A755E",
"Z. c #85795F",
"A. c #8A795F",
"S. c #947154",
"D. c #95735B",
"F. c #9B7759",
"G. c #A07452",
"H. c #A47D5A",
"J. c #857964",
"K. c #8A7C64",
"L. c #907D64",
"P. c #9F7D63",
"I. c #008400",
"U. c #CC8200",
"Y. c #CC8B00",
"T. c #988364",
"R. c #988964",
"E. c #908169",
"W. c #A08464",
"Q. c #A08964",
"!. c #A0846C",
"~. c #A38C6C",
"^. c #A78F73",
"/. c #A79573",
"(. c #AE9673",
"). c #AF977B",
"_. c #AF9C7B",
"`. c #B69E73",
"'. c #B69C7B",
"]. c #AFA27B",
"[. c #B6A37B",
"{. c #B69E82",
"}. c #AFA582",
"|. c #B6A282",
" X c #BAA886",
".X c #BEA98A",
"XX c #C5B08C",
/* pixels */
"l v b c l l l l b W v v v v x k k v Q n v v ! ( v n n ! b c v ! x v x l k l x v m m l g x n x m x l v n b l k c l z v m m m m x ",
"[ [ ] [ n.n.[ / ` ] ] ` [ V.V.V.V.[ ] } K.E.Z.[ [ [ } J.J.[ { J.[ V.V.K.J.V.J.K.K.K.A.Z.V.} } } } [ } } n.[ ] M.C.V.m.n.B.C.C.E.",
"v b v l l v b ! ! ! ! b b ! m ! ! ! ! ! ! m Q b v v v b E c l v ! b c l x c b m c c E W x x b x v v x x c v c l l l x b x x v m ",
"* 1 , , > , , & & * & , , , & , % , , = , > , ; , > , , = & * , < , > > , > > > * = * * < > , < ; , , , * * = * > * * = > * * > ",
"> ; w w e t y u y u t e w e & , * = * * < * , & , > , , , % ; , 1 < > > , > > , * , , * , > , , * = = , > * , - 3 7 M N M 7 - & ",
"1 ; w w r y u u y y t e e e ; , * * * & , , , $ > > > , , * , , , < * , > * * , * , , & * > 2 , * > * , > = < ; 3 7 N N q 7 ; & ",
"> ; w w e t u u u y t r e e ; , , * * * , , , % , * , > , * , , , , & , , > * , * , = $ * * 1 < > , * > , * < - 6 j N V M 9 % & ",
"& ; w . e t u u u u t t e e ; , < % T R T ; , * * * , & > * , , * , * , , , & > , * * * > * < 2 , , * * < = * - 6 M V N 9 8 $ & ",
"& ; w w r y u y u u y t e r - , , - T T T % > * > * * & , & < , * , & , 2 = * , = & % * , & 2 < = , & * 1 % , % 8 M A S B z % > ",
"& - w w r t i i u u y t e e % * , - T T R % , , , = > * 1 & < > $ , $ , , , * & = , = * > & 2 , , < * = , % , % z C F F C z % , ",
"> % w w e y i p i i u t r e ; > , % T T T % > & , = , , < & 1 , % = $ , , * & * & < , * > & < > , , * * 1 & , % b A ) ^ A z % > ",
", ; w w e t u p i i u t r r - , , $ T T T - , % , * > * 1 & < > & , & , , * & & & = ; X # -.r.r.t.t.:.+.+ % > % b A ^ F A l % * ",
"* - w w e t u u i i y t r e - > , % T T T % = $ > $ * * 1 > , , * , , , , & $ = * * ; o o.;.y.t.u.i.>.@.O - = % A ~ ^ ^ A v $ > ",
"* & w w r t u u u u t t e r % > , % T T R % = * , & > & ; 2.%. . .$.2.; * * % , , & % o O.:.u.u.i.i.>.+.+ ; = % A ~ ) ^ A z ; , ",
"* & w w r t u u u u t t e r - , , % R I R % - L.N.m.; & : &.#.|  .$.1.; , , & , , % - O +.:.u.i.i.p.>.+.o ; , % A ~ / ^ A z ; * ",
"> % w w e t u u i u t t e r - , , - U I U % ; N.N.c.; & : &.#.| | #.1.; , , , < , & ; + +.;.u.p.y.i.,.+.O % , $ z ^ ^ ^ A z % & ",
", - w w r t u u y y t r e e - > > : P L P - ; m.N.b.; , ; 1.X.| @ #.2.- , , = , > > : O +.;.u.i.p.p.,.@.+ ; , % b W ^ ) A z ; & ",
"* - w w r t u u y y t r w e - , > - K K K ; : b.S.c.; > ; 1.#.|  .#.2.- , * * , > > ; O +.:.i.i.p.p.>.+.o ; , % A A ^ ^ C z & ; ",
"> % w e r y u u u y t r e w % , > % K K K ; - c.N.c.% , ; 1.%. . .%.3.; * % * , > & ; O +.>.i.i.p.p.:.+.o ; > % b A ^ S z j - > ",
", - e w r y u y y t r r w w ; < > % P J K ; - z.b.l.- > ; 1.$. ...$.3.; = % % , * & ; o +.:.i.i.p.i.:.O.o ; > - c S S C j h ; > ",
", % e w r y u y t t r r w w : < * ; P K K - - j.N.l.% > ; 1.$. . .$.2.; , & % > * & ; O +.:.u.i.r.y.;.O.o ; , - l C C j j h ; > ",
"> - w w t t u u t t e e w w : , * : P K K - ; l.N.l.- & % 1.#. ...$.3.; , > $ * , * ; O +.;.t.t.7.t.;.O.O - , ; j C C j j 8 : > ",
"& ; w e t y u u t r t e w w ; , & - P K K - - l.N.l.% * % 1.$. . .%.3.- > , % * , , - o O.:.y.t.t.t.;.+.O - , ; v C M j 8 6 ; > ",
"> ; w w r y u y t t r e . w - , * % K K K ; - l.m.c.- * ; 1.%. . .$.2.- > Y.d.d.f.% ; o O.;.t.7.y.t.;.+.O - , ; C Z M 9 j 6 - < ",
"> ; e e t y u u t t r e w . % , * % L K P ; ; m.S.m.- > - 1.$. . .%.4.- ; Y.d.s.q.- % o o.;.t.t.7.7.-.+.O % > % C C Z M 9 6 % > ",
"> : e e t y i u y t t e w w ; > , % L I U ; ; C.D.D.; > - 1.$... .$.3.; ; Y.s.0.q.% % o o.=.7.7.6.7.;.+.O % , % z C Z V 9 6 % > ",
", ; w e t y i i y y r e e w ; > > % U U T - % D.D.D.; > - &.$. . .#.2.; - Y.s.a.q.- % o o.=.t.7.6.7.:.+.O % , $ z C S Z j 6 - , ",
", - w e t y i u u t r r w w ; > > % R R T % - D.P.D.- > - 1.#.|  .#.1.- - Y.s.s.q.% ; o O.;.t.t.5.7.>.+.O % < % 8 C S Z j 6 ; , ",
"> & e w t y u u y t t e w w ; = * ; T T T - ; P.P.D.; * & &.#.|  .#.1.; ; U.d.d.f.- > o O.;.7.7.5.7.>.+.o ; , % k C S Z j 6 ; , ",
"m b E v v c c 4 k k 4 k c E b b c x v b ! ! ! ( ! ! m m m ! ~ b b ! ! A ! ( ! ! c b ! b v v v n v E ! W Q m ~ ! c x x v v m x ! ",
"V.V.V.K.L.L.K.J.Z.J.} V.V.J.M.M.J.V.} V.} { } V.K.V.[ ` ` ] [ n.` ` [ V.M.[ ` / B.K.K.J.} } } E.[ } C.Z.} } V.V.J.V.J.V.J.J.J.K.",
"_._.|..XXX.X'./.!.F.T.~./.).'.|.|.{._.{.|.|.|..X|.|. X.X X(.~.Q.W.T.~.~.Q.P.^.'.[. X|././.]. X}.[.~.T.R.[..X/.T.T.R././././././.",
"T.~.(.'.{.[.|.|.`.`.[.[.[.[.[.XX(.'.'.'.(.^.~.R.R.Q.R./.(.'.{.[.'.~.A.~.[._.R.T..X|._./._. XXXXX.X_.~./.|..X|.{.~.R.Q.!./.|.|.).",
"V.n.[ [ [ V.V.A.K.K.K.A.A.C.B.[ ] ` ` ` l.M.M.} V.A.K.E.K.Z.J.Z.Z.V.} V.Z.} } A.} V.B.} Z.K.Z.J.[ [ [ [ ` ` [ M.V.J.[ ` M.V.C.J.",
"m v l k l l l c l l k l c b m b A b v c c c x c b m ! m v v v v ! D ! ! ! m n ! ! ! ~ m n m ! v ! v v b ! ! ! ! b ! ! W ! ! W b ",
"> * > , > , = * 2 , , , , > > , , & 1 , , 2 , * & > & , > , , ; * > , > > , > < > > > > , , > * , , * > , , > = = * 1 & < * , & ",
", * = 1 , > , * , , , , , * & , , & , 2 ; z C S S z 8 ; > , , > & = < & & < > < = = , , 1 = * * < ;   w e t y y u i y r w w ; * ",
"> , = , > , < & , , , > > = & , , * , , - z z S A C z ; > , > > & * 1 & & , > > = * > > = 1 * * 1 ;   . e t u u u i y r w w ; & ",
"< > * , 1 > , > , , 2 , = > * > , > > , ; z C S S z 9 % & , > & * & 1 = ; > > > > & = > * = , & 1 ;     e t u u i i u t e w ; * ",
"= 1 * > > > 1 > , > 2 , * > , > * , > , - z C S S C z % & , , & = $ > < * , , , < * ; Y I Y % & , %   . e t u u u i u t e e - , ",
"= * < * * > 1 = , , , , * * , > > > * , ; 9 z S S A B & > , > < 1 = * , , > , , ; > ; R L K ; & , ; .   w t u y y u y t e r ; < ",
"& = > = = * * > * , , , , * , * * > > , ; z C F F A z ; > , > < , 1 > * * * < , & * % Y L K ; > < ; . . w t y y y u t r e e : , ",
"$ > , > , * * * = , , , = * , = % , , , - z C S F Z z : > , > > , , , * * , < > & * % Y I L ; , , - w   w r y y y y r e w e ; % ",
"$ < > = > = * ; o o.=.r.6.<.,.-.o.o ; , - 9 C S F C z : ; , > > > , > = ; > , & * * % Y Y P % , > ; w . e e t t t t r w . w ; % ",
"* * > > = > , ; o # *.,.r.<.5.;.o.O - , - 8 z S F C z ; * , , > > > , , * * , & * , % Y Y Y % < & % w w e e t t y t e w w w ; * ",
"* * > > * * , & X # *.r.r.6.5.=.o.o % , ; j z S F C z : % 1.#. . .#.1.; = * , > = , - Y Y Y - < & % w w e r y y y t r e . w % , ",
"* * , > & > , ; o # -.r.r.6.5.=.O.o - , ; 8 M Z S C z ; % 1.#.| | #.1.- * & z.N.b.; ; R Y R ; < * - w w r t y y t t r w   w - > ",
"> > , , > > > & o o.-.r.r.6.5.=.o.o ; < - j j Z S C j ; - &.#.| | X.&.- * % k.v.k.; ; L I Y ; , , ; w w e t t y t t e e . w - , ",
"> & * > > < , & o o.-.r.,.r.6.=.# o : , - h M B V M j - % &.X.| @ X.&.; * ; w.e.h.; ; K L P % = , % e w r t t y t t e w . w % > ",
"> & * , > > > ; o O.-.r.r.6.6.-.o.o - , ; 8 j N M j h - % &.X.@ @ ..%.% > : w.e.w.; ; f H J - < , % e w t t y y t t e w w . - & ",
"> & * , > > , ; O +.;.r.r.r.r.;.o.o - > ; 6 j N N 9 6 - % &...@ @ ..$.% = : w.w.w.% & f H J ; > > % w e t t u y t t e w . . - > ",
"> * > > > , , - O +.:.r.y.r.r.;.O.o ; , : 7 M M N 0 5 ; - %...@ @ ..$.- > ; w.w.G ; ; f H J ; > , % w e t y y t t t e w .   - > ",
"> > 1 , > > > & O O.-.r.r.r.r.=.o.o ; , ; 9 q N N 0 5 ; ; %...@ @ ..%.; * - e.v.g.% - H d H ; > , - e e t t y t t t e w w . - > ",
"> , , > > , * % o o.-.7.r.,.,.*.# X - > ; 5 q N q 7 3 ; ; %...@ + ..%.; * % c.G.v.; - s a f : > , ; e e t y u y t t t e w w % & ",
"> = > > , > > % o o.-.r.6.6.<.*.# X % > ; 3 7 0 0 7 5 ; - $...@ @ X.&.; & $ b.H.F.- % d a a : , , - e e t y i y t y r e w w % & ",
"> % U.a.8.0.; ; o o.=.6.6.6.<.=.# o - = % 3 7 0 q 0 5 ; % %...@ @ X.1.& & % S.H.S.% % d a a - > > - r r t y i u y y r e . w % , ",
", ; f.a.9.s.- % o +.-.6.6.5.5.*.# o ; > - 6 M N Z M 9 ; % &.#.|  .#.1.% > % S.H.b.; ; J J J ; , & ; e e t u p u u y r e . w ; * ",
", ; U.a.a.0.; - O O.-.6.5.5.5.=.o.o ; , - 6 j Z Z V 8 ; % &.X.|  .#.1.- , - b.F.c.; ; J J J ; , & ; w w t u p i u y t w   . ; * ",
", ; U.d.a.0.- ; O O.-.<.>.<.5.*.o.o - , ; 8 j Z S V 9 ; - &.#.| | #.1.; > ; b.G.k.; - J K P ; < & - w e t u p i u u t e . . % , ",
"> & U.a.a.0.- - o +.-.5.>.<.5.=.# o - , ; 4 j S S C h ; ; &.#.| | X.&.; > ; v.b.j.- - J J L ; , > ; r r y p I.p i u t r . . & , ",
"* ; U.a.a.0.; & O +.-.6.5.>.5.=.# o % > : h z F F M h ; > &.#.| | X.&.; < ; v.v.h.; & K K U ; , > ; t e y i I.p i i y e w w ; , ",
"! ~ ( ! ! m v v ( m b v x b x c l k k h h x m D x l l l v v c x ! m b c b v v x W b ! W v v m ~ x c x v ~ m n l v W ! ~ m x c b ",
"Z.Z.K.L.K.} V.J.V.[ [ [ ] [ n.n.V.[ [ [ B.B.B.Z.Z.Z.B.n.] ` / / V.[ ] ] ] V.Z.A.x.M.V.J.n.] [ V.` _ _ ] V.Z.} ` n.M.J.V.n.n.[ n.",
"! v k l n ( m k g l b m b z l b ! x x m m x k x x m m D v v l c x c x b b b b b v l 4 4 l x x l v b v c v v c b v A b b v W b c "
};
