/* XPM */
static char *e67a585411e041dfda8559570a061d7fGWZMLqjVhRz2NkCp[] = {
/* columns rows colors chars-per-pixel */
"64 64 141 2 ",
"   c #3D2E1B",
".  c #3E311D",
"X  c #412F1C",
"o  c #492F1D",
"O  c #45321E",
"+  c #4C321E",
"@  c #52331F",
"#  c #5C351F",
"$  c #463220",
"%  c #4C3520",
"&  c #543521",
"*  c #5A3621",
"=  c #553922",
"-  c #5C3923",
";  c #623722",
":  c #633A24",
">  c #6B3C25",
",  c #723D26",
"<  c #733F28",
"1  c #644327",
"2  c #644B2C",
"3  c #6C4E2E",
"4  c #7D4429",
"5  c #704F2F",
"6  c #784C2A",
"7  c #71522E",
"8  c #6B4F31",
"9  c #6E5131",
"0  c #6F5834",
"q  c #725433",
"w  c #7B5734",
"e  c #765834",
"r  c #7C5A36",
"t  c #775939",
"y  c #7D5C39",
"u  c #7C6036",
"i  c #7E613A",
"p  c #815D37",
"a  c #825D3A",
"s  c #8A5E3C",
"d  c #84623C",
"f  c #8A643D",
"g  c #87683E",
"h  c #8A693F",
"j  c #92653E",
"k  c #916B3F",
"l  c #876541",
"z  c #8A6540",
"x  c #856A41",
"c  c #8C6A42",
"v  c #936C43",
"b  c #996E46",
"n  c #8D7247",
"m  c #957245",
"M  c #9A7345",
"N  c #9C7947",
"B  c #947549",
"V  c #9A7549",
"C  c #96794B",
"Z  c #9D7A4B",
"A  c #9E7D51",
"S  c #A1764A",
"D  c #A27C4D",
"F  c #A37D51",
"G  c #A87E50",
"H  c #9B804E",
"J  c #9F8051",
"K  c #A2814E",
"L  c #AC824C",
"P  c #B3864F",
"I  c #BB874F",
"U  c #B7884C",
"Y  c #B88A4F",
"T  c #A58352",
"R  c #A98655",
"E  c #A58955",
"W  c #A68458",
"Q  c #A98559",
"!  c #A78A58",
"~  c #AA8B5A",
"^  c #B48A52",
"/  c #BC8D54",
"(  c #BE8F58",
")  c #AD915B",
"_  c #BE9254",
"`  c #BF925A",
"'  c #BF985A",
"]  c #C08E54",
"[  c #C19256",
"{  c #C1955B",
"}  c #C39A5D",
"|  c #C5A15F",
" . c #C39661",
".. c #C59D62",
"X. c #C59C64",
"o. c #C59F64",
"O. c #C79F64",
"+. c #C89E66",
"@. c #C3A061",
"#. c #C5A062",
"$. c #C7A262",
"%. c #C5A562",
"&. c #C5A365",
"*. c #C7A264",
"=. c #C6A067",
"-. c #C7A267",
";. c #C5A564",
":. c #C5A567",
">. c #C8A465",
",. c #C7A862",
"<. c #C7A866",
"1. c #C9A967",
"2. c #C7A668",
"3. c #C7A76B",
"4. c #C8A668",
"5. c #C9A46A",
"6. c #C7A96A",
"7. c #C8AB6B",
"8. c #CCAE6B",
"9. c #CAA96D",
"0. c #CBA96D",
"q. c #C9AB6C",
"w. c #C9AD6C",
"e. c #CBAC6D",
"r. c #C9B16D",
"t. c #CBB16E",
"y. c #CBB46E",
"u. c #CCB46E",
"i. c #CBAC70",
"p. c #CAAC71",
"a. c #CBB570",
"s. c #CDB471",
"d. c #CCB472",
"f. c #CCB573",
"g. c #CDB274",
"h. c #CDB574",
"j. c #CDB873",
"k. c #CEBA75",
"l. c #CFBE79",
"z. c #D1B877",
"x. c #D0BD78",
/* pixels */
"%       % + . . : : = % = 1 6 6 ; % . . = : - & .       O * - - $ $ @ ; : > : : * - - ; ; : > > # # # # # + o   . O + & - * * - ",
"c g y d x d i x l x i g x B m n a y t t t y y y d i e t y z z c d y i w y h z v v m v v k k f d r 7 7 q w w r r a g v M v x x c ",
"T K Z Z T N V T J J T Z H Z Z Z V B B Z A A A A N D Z A F A V M A V k h h v V B v m m m N D D D G N b v v v v v N H T K N m V D ",
"w.&.} ..%.' Y Y } %.,.@.} ' ' ` ^ ^ ` O.2.q.O. .` { } &.5.&.{ .. .} } ..&.&.....O.&.2.9.7.f.f.u.w.s.f.1.{ / _ _ } | #.} ' } :.t.",
"f.8.&.O.>.{ U P _ %.f.h.y.f.w.:. .` &.>.9.p.2.>.} ..:.>.7.9.w.8.+.{ [  .} &.>.} ` ` .. .{ [ / ` >.9.7.&.{ Y / ` ' | | ' ' } :.y.",
"D K N v c f s v k m V Z N Z D Z v c c v D R R F V N S S V V M S Z S S S L F F V v b V B h c b A D V m h m m V B B N Z Z N B m B ",
"z v s w a r p s d f p t w a g f a y t r l v v z h j h f p p w p v j s p p a a a a f a w q e y z d t e e g v v c h z g c x g d d ",
"@ + X X @ * & & & @ @ o & * - ; = * = = = * & & * - - @ + @ # ; > ; # # @ @ @ @ ; ; - & & * - - - * = = - - - = + O + - ; # # + ",
"  . . $ & = : : & @ + O + + # # O + + - & + + + + + @ O o o @ & o o @ @       + @ # %     % & = % % $ % $ $ .   . . + = = $ . . ",
"g x x c x g x d i y i d i i d d i d h d i d d a r r a f f j s s a a s s s f g f d a w a y r 9 r a d y a y r r a d g g d i i x i ",
"E ~ ) ) ~ D B m h h k m m m B B B K E K D Z N M m k m M D G G S b M V S D G D D v v v N Z v v V A F W Z B v V F E Z B c k n H H ",
"k.k.f.f.t.w.w.w.7.>.%.#.2.w.6.<.:.f.k.k.t.7.>.>.:.7.<.O.......} { } >.9.8.8.>.| } .. ...7.7.5.9.s.p.2.&.6.9.p.9.6.7.w.6.t.k.k.k.",
"7.t.k.l.l.f.t.7.1.6.:.:.&.-.9.p.w.6.w.w.>.:.>.1.7.u.f.t.9.>.-.} } { } } } } >.8.w.8.6.&.9.5.&.+.O...{ { { {  .{ } >.f.7.1.t.7.<.",
"N Z T R R K V v m V D N m m V D Z C N A D Z Z T ) ) ) E T Z m v k M M b b M k S V V V V V V V S Z V V M Z V V b b Z T D Z Z Z Z ",
"g a w r w y s d d d f h d d d f z c c M v c c v C C c m m b b b k k v b k f p s z a a y t q w z z w q q d f p 9 9 r y y a f h h ",
"+ % @ * - - * * @ O   . @ * & # - , > : ; ; : : : : : : > > > 1 4 , > > , > ; ; ; > > * % o & ; : * & @ & & @ + + @ & @ + = = @ ",
"* - ; : - * * - ; # + @ # # * # & * - - & + % & = & & & $ X + # * = * * @ @ o o + # ; ; # # : ; - # : : : : : - # # # # # @ # ; ",
"h c k g e e a h v h f w r p s f a d d d y y d y y a a a a a d d d d d a a a a s d d f d d d f d y y d h m V m h d g k k h d d h ",
"T D N M k M M m b k k k k v v b B m v h d y y i v v c l h h k m N H G T S S b b N V D S k N b v m C Z H B V m m N S D N k k N K ",
"8.9.,.>.#.} { [ [ { ..>.>.&.} { { } ..#.#...} ` ( ] /  .} ` P P _ } +.0.0.+.{ [ } } } | | { ] [ } 2.w.<.&.&.:.5.| | { ] U Y ] | ",
"] } $.>.$.} } } { ..+.>.-.-.O.} ` ' O.&.7.7.>...O. .(  .+.9.-.q.} { } :.9.+.&.>.+. ./ I Y / [ ] { .. . .'  .X.&.7.>.#.| | { { } ",
"k v N D T K R K M S D S V v m V F N V v V Z A m z l z S W F F C v v m N Z b b M V v a p l v b Z Z F A B c z c v D D N V N m k N ",
"k m c v v v j f f f f s p w q w i r 9 8 0 d z y t 8 t t y y y y q 8 q p p w q t t t q t l c v v c z z d y y d s c c h h f d g k ",
"; , 4 , ; # # ; # @ o o + * - - = * & O + & & $ & $ $ * = & % % +   X * - * * : $ X X . % - - - - : : * o X $ + & = - : # @ + @ ",
", ; # # & + & # & + X   O & - > : - * & $ . $ % & & & - = = = - - + - > > = = : = = % . $ = # + O % - : = + O O + % + @ # - > , ",
"r e r p a s d a i r q 3 8 q y z z r 9 8 2 2 8 0 a g z n B C C n y e q d g d d h c n n x d g g f d x c v h i e e r d d f d h z s ",
"M M m V V V Z F D V m v z v N W F v a y l v V A B V B B A E E Z B m m H J Z C N M Z N M m v v v N T T D m h f p h m B V m v j h ",
"8.$.$.| >.>.9.p.p.w.9.&.X.' &.p.g.2.' } O.-.-.-.%.:.%.#.w.k.k.| / { | ../ P _ ' :.} / ] { } [ ] { ..+.} { / ] I _ ' } >.9.w.w.>.",
">.| } #.>.>.-.3.2.O.O.-.9.3.3.p.q.:.-.p.p.p.p.5.$.w.w.2.t.k.0.{ { $.>.} / / } 7.5.} { } +...} } [ ] [ } #.6.&.} } ..&.w.a.a.6.:.",
"D D V V Z V v v z d d c V A A V V B V A T F Q Q ~ Q F N V T D S V Z D D F F D N b Z F V V M B B v m Z D Z F T T m v n B N Z m v ",
"p d f c V V v z d r t a l l s l l l d d l l l v c c d r e r p w 7 7 w s a r q q p v m x d i x x i i h z d d d x d i d l d i e 3 ",
"o # ; , 4 < ; & X       + * ; : : - * - - & - : - - : : : @ o                 @ , 1 : % + = 1 1 = .   . = 1 %       . O $ % % o ",
"O O & ; > : : ; - # # ; ; : > > * * * * & + O O . O + & # - - - +       + % . . : : = + = 1 6 6 ; % . . = : - & .       $ = - ; ",
"d d w p r f c v v m M v k v f d r e 6 7 w r w r d x v M v c x h c d y d x d i h x g x i x C m n d t e e e t y l d y e e d l z z ",
"N V v g h v V B m v m m N D D D D V M v v v k v B K T K N B N Z T K D Z K N C T J J T A Z Z J Z V B B N A J A A Z Z D F F A C V ",
"} } } ....>.&...#...2.q.w.a.a.w.8.f.f.5.{ / _ [ } | @.} ` } %.t.9.:.} } 2.} U ^ ' %.,...' ' ' ` ^ ^ ` ..6.2.X. .` ` } :.2.:. . .",
"O.{ [ {  .>.+.} { { ....{ [ / ( >.7.9.&.` / / _ } } | ' ' ' :.u.f.7.>...:.{ Y P [ %.y.k.u.f.7.:. .' &.2.9.p.2.-.} ..&.>.9.2.p.w.",
"Z S D D G F D V v m V B z v V Z D V v h m B m B B N Z Z N V B B D G V v k f s h k m V Z S Z D Z v c v v A R G F S N D S V V V V ",
"v j s p p p a a a s s e q q r z h e e r l v m c g h g h h h d i z v f p r r p f d d a w w d f f d y t t l v v c h j k f p w r p ",
"> ; # * @ @ @ & - ; - @ & * - - - * & = : - & = + O + - - - = + @ +     & # # @ @ # + + + * - * = * = & & * * = # - # @ + @ # > ",
"o o @ + X     + = * +     o & & + O $ % $ $ . . . . % = = $ . .     . O # = - : & & + O O + # # O + % * & + + + + + @ O O o @ @ ",
"p s s f d d f f a a p p r t e y a d a r r r r y d g d i i i g g g l x c x h x f i i d d d d d d i d f f y d d a r r a d h j s p ",
"b M V S D D S N m v v V Z v v V D F T D v n V T T H B v n B C H E ~ ) ) ! Z B m h h c v v B m m B K E T D Z N M n k N V G G S S ",
"[  .>.9.8.8.9.$.} } ..O.2.9.7.9.g.p.2.2.q.9.p.9.5.w.w.>.t.j.j.k.l.k.k.h.u.7.w.w.w.#.#.&.5.w.7.9.2.y.k.k.s.w.&.O.:.1.<.#.} +.} O.",
"{ [ } } } } >.9.9.9.0.+.3.p.-.O...X.{ [ '  .{  .} :.f.w.w.w.w.w.7.w.k.l.x.h.w.7.1.7.6.:.$.&.w.p.w.<.w.<.2.&.&.5.w.s.s.s.9.>.>.} ",
"k S M S M b M S V V V V V v V S D V V V A b V b v D T D N D N N N Z T R R F V v m V D N V v V Z Z C Z H D Z Z F ) ) ~ ! T Z m v ",
"k k k b k j d p z l a r w 9 t z f r q q p l p 8 9 w a r d f h h h a w w r y d f d d h d f d d g x c v v v c v v B B n v B v b v ",
"4 < ; > > ; > ; ; > ; * % % * ; ; - & & * & & % % & & + + & # @ + % & - - * * * @ O   . @ # # @ : > > ; : : : : : : : > > > , < ",
"; # # # @ o o o o # ; : * ; ; ; # - - 1 : : ; # # # # # # @ # : - - : ; - - # - ; @ @ + @ # # * & - - - & + % % & # & + + O + # ",
"g d i u a s s a s a f p d d f d r y d h m N m g d h k k f d d g h h h d e e p k v f s p p p f f d d a d i y d y y p a s p r i g ",
"N Z H K G S S b b V D N S k k k m C A A N B m k k D K N v k N L T D S N k m M M v k k k j k v b V B n f d d i y v m x x h h k B ",
"_ { >.u.9.O.{ {  . .+.#.| [ [ [  .3.2.2.6.&.&.:.| | { _ P L _ | t.7.1.$.$.} { [ [ } ..+.>.+...{ { } ....@. .} ` _ / [ { } ` P L ",
"' { ..-.9.+.,.>.+. ./ I _ Y [ [  .X.X. .{ { ..&.7.,.+.+.} [ { } ] } | ,.>.} } } } ..+.>.>.O.O...` ` ..X.6.7.&...O. .(  .:.-.-.5.",
"m v v N D M k V A c a a f k M S A F A b v z x M T K Z V N N M N k k N L T K T D N S D S V m v V K Z V v V A A B l s z F R W G A ",
"q 8 q p a w q q y t q t z c v v v l z d a y a a k c g g f d f h v v v v v v f f s f j s w w q w i r q 9 e a l y t q 9 t a r r t ",
"+   X * * * # ; o X .   % - - - - ; ; * o . O % @ - - : # + @ + : > 4 , : # # ; # @ O + + # - - = - & $ O & & O & o $ * = & o % ",
"= = - > 1 = # ; = = % . O & - % O % - : = % O O + + + @ - ; , , , ; ; & @ @ # & & o   X O & - > : - = & $ .   % * & = - - - = - ",
"d 0 q d h i d h c n n l d h g d d h c c h y e e u i d f f s s z w w w p a d d y a t q 8 3 q a x g y 9 3 2 2 8 e y z x c C C C n ",
"B k B H K Z V C A V A B M v v v S T T D m h f d h m V V v v g g M M M N V V N Z D V B v c v V W F v i y c v V A B V B B H J J H ",
"Y } #.../ P / } :.` / / { { ] [ { } &...{ ] Y I _ ' } 2.w.w.w.6.1.&.} #.>.5.8.i.p.p.w.3...{ O.p.g.-.'  .O.-.2.+.-.2.-...a.l.k.%.",
"{ | #.} Y / } 0.5. .{ } +.} } { [ _ [ } #.5.&.} ' } #.w.a.a.w.@.0.}  ...>.>.7.7.+.O.X.-.3.O.p.p.q.&.&.q.9.p.&.2.:.w.w.<.t.l.w.' ",
"V Z D T F G D Z V V F Z V V V N c m Z D D D T T B m m V Z Z m v D D V V D V v v z d d c V A Z V V B V F T W Q ~ ~ E D V N T F V ",
"5 3 r f p w q q p v v x i i x x i i g x h d x x i i d d d a w 5 s d s j b V c f d t t a z z l l l l a l l l z v v c a t w w a w ",
"      X       + > , 1 % % = 1 1 - .   . - - $ .     . $ O O + o o @ # , p < : % X   . X o * : : : - * * - * - : - - : : ; @ o X "
};
