/* XPM */
static char *c035e390a4c54bb8c20b0323cdfb56a9W1KHi3crK6DsOKaY[] = {
/* columns rows colors chars-per-pixel */
"64 64 226 2 ",
"   c #030202",
".  c #0A0604",
"X  c #0B0806",
"o  c #080708",
"O  c #0D0C0B",
"+  c #160B06",
"@  c #120E0B",
"#  c #14110E",
"$  c #1C130D",
"%  c #0F0E1A",
"&  c #151412",
"*  c #1A1512",
"=  c #1C1914",
"-  c #18171A",
";  c #1D1B1A",
":  c #22170D",
">  c #231C15",
",  c #2A1C13",
"<  c #221D1B",
"1  c #2A1E1A",
"2  c #242216",
"3  c #25211D",
"4  c #2D2619",
"5  c #2B241C",
"6  c #34251C",
"7  c #34291E",
"8  c #1D1D24",
"9  c #211F24",
"0  c #1F2020",
"q  c #262423",
"w  c #2B2624",
"e  c #2E2A22",
"r  c #28262F",
"t  c #2D2B2A",
"y  c #322721",
"u  c #332C23",
"i  c #392C24",
"p  c #322E2B",
"a  c #3C3226",
"s  c #35322C",
"d  c #3A322A",
"f  c #38352A",
"g  c #3A2D30",
"h  c #3C3533",
"j  c #383737",
"k  c #3D3B33",
"l  c #42352B",
"z  c #453B2C",
"x  c #4A3B2E",
"c  c #433B33",
"v  c #433835",
"b  c #4A3E34",
"n  c #423E3B",
"m  c #523F35",
"M  c #49422F",
"N  c #464035",
"B  c #45413B",
"V  c #4C433B",
"C  c #4C493B",
"Z  c #544637",
"A  c #51463E",
"S  c #534B3C",
"D  c #383841",
"F  c #413E4A",
"G  c #3E4342",
"H  c #4B4441",
"J  c #484647",
"K  c #4D4A44",
"L  c #534B43",
"P  c #5B4E45",
"I  c #564B48",
"U  c #514C4B",
"Y  c #585145",
"T  c #55524C",
"R  c #5B534C",
"E  c #5E594C",
"W  c #4E4D50",
"Q  c #534D53",
"!  c #5B5553",
"~  c #5E5A51",
"^  c #5A575A",
"/  c #62554A",
"(  c #655A4D",
")  c #6A5B4D",
"_  c #635C53",
"`  c #675B57",
"'  c #6C5D54",
"]  c #645C5B",
"[  c #725F54",
"{  c #6C6455",
"}  c #65625A",
"|  c #68655B",
" . c #6C635C",
".. c #71635B",
"X. c #746A5C",
"o. c #796B5E",
"O. c #5A5A60",
"+. c #656561",
"@. c #6C6664",
"#. c #6E6A63",
"$. c #6A676D",
"%. c #736665",
"&. c #736B64",
"*. c #7B6C64",
"=. c #736D6C",
"-. c #796E6B",
";. c #6F7166",
":. c #767164",
">. c #7C7365",
",. c #77726C",
"<. c #7C736C",
"1. c #7F796E",
"2. c #6E6C74",
"3. c #736E72",
"4. c #747272",
"5. c #7A7473",
"6. c #7D7A75",
"7. c #747278",
"8. c #7A7579",
"9. c #7D7A7C",
"0. c #81736C",
"q. c #877869",
"w. c #827A6D",
"e. c #807672",
"r. c #837C74",
"t. c #8B7973",
"y. c #847C7B",
"u. c #8D7F7B",
"i. c #917F76",
"p. c #8C836D",
"a. c #8A8274",
"s. c #86817B",
"d. c #8B8579",
"f. c #8B837C",
"g. c #92857C",
"h. c #95887A",
"j. c #7E7A81",
"k. c #827D82",
"l. c #8C7F80",
"z. c #7D8280",
"x. c #848283",
"c. c #8B8482",
"v. c #8E8984",
"b. c #858188",
"n. c #8A8589",
"m. c #8D8A8B",
"M. c #938682",
"N. c #938A83",
"B. c #9A8D84",
"V. c #9A8D87",
"C. c #938D8C",
"Z. c #9A9387",
"A. c #94918C",
"S. c #9B938D",
"D. c #8E8A91",
"F. c #918E90",
"G. c #949393",
"H. c #9B9592",
"J. c #9D9A95",
"K. c #989599",
"L. c #9D9C9B",
"P. c #A3958C",
"I. c #A9968B",
"U. c #A29792",
"Y. c #A99792",
"T. c #A39B94",
"R. c #AA9C93",
"E. c #A39D9A",
"W. c #AA9E9B",
"Q. c #A4A096",
"!. c #A4A19C",
"~. c #ACA79B",
"^. c #ABA39C",
"/. c #B7A89C",
"(. c #A39EA3",
"). c #A6A3A2",
"_. c #AAA5A3",
"`. c #ADA9A5",
"'. c #A6A7A8",
"]. c #ABA6A9",
"[. c #ADABAB",
"{. c #B7AAA3",
"}. c #B1ABA4",
"|. c #B2ADAB",
" X c #BDB0A2",
".X c #B4B1AD",
"XX c #BAB2AD",
"oX c #B4AEB1",
"OX c #B5B3B3",
"+X c #BBB5B3",
"@X c #BCB9B5",
"#X c #BBB6B8",
"$X c #BDBBBB",
"%X c #C2B8AB",
"&X c #C2B7B0",
"*X c #C2BBB4",
"=X c #C3BDBA",
"-X c #CCC1B5",
";X c #C4C1BC",
":X c #CAC3BD",
">X c #D1C2B7",
",X c #BDBCC0",
"<X c #C3BEC2",
"1X c #C5C2C3",
"2X c #CBC6C4",
"3X c #CCC9C3",
"4X c #CBC7C9",
"5X c #CECBCD",
"6X c #D3CCC5",
"7X c #D2CECC",
"8X c #D5D1CD",
"9X c #DBD5CD",
"0X c #CFCED0",
"qX c #D4D2D2",
"wX c #DAD6D3",
"eX c #DDD9D6",
"rX c #D7D5DA",
"tX c #DDDCDB",
"yX c #E1DDDC",
"uX c #E0DFE2",
"iX c #E4E3E3",
"pX c #EAE6E4",
"aX c #ECEAEB",
"sX c #F0EFEF",
"dX c #F5F4F5",
"fX c #FAFAFA",
/* pixels */
"=X(.j.$.2.(.uXfXdXiX=XE.:X=XI.I.%X9X{.7XpXoX^ 8       O D r o O s n J [.3XN.d O q s.}.].rXdXuX'.c.H.f./ * & R / w.XXeX8X-X:X8X3X",
"=XE.$.2.G.$XuXiXqX,X].C.|.*X/./.>X9X=XwXtX2X].x.q o   o & r & O & w ^ [.$XQ.E : = ' P.(.qXiXqXL.8.=.0.0.v = _ ` L H.rX8X;X.XL.).",
"OX].j.j.G.[.$X;XOXF.3.-.Y.&X/./. X*X-X;X|._.:X}.R * # $ j $.^ G j j $.L.T.a.N # # P B.U.1X7X$X'.G.=.,.h.R ; B X.=.+XqX$XL.z.2.b.",
"[.[.H.v.4.6.s.h.G.4.4.G.+X*X&Xi.i./.XX!.P.T.~.r.f 2 N f | L.].[.m.J G } } T u # & H f.K.#X1XOX;X.X6.r.E.%.1 > C @.n.OX[.K.z.9.G.",
"3XXXP.w.L u d q.J.6.).;X2X*X|.g.J.P.Z.P.Z.g.} q # 2 f C | T.=X2X~.K 2 2 u R B O & K <.C.OX<X2XwX:Xs.y.H.f.v 5 6 d N w.J.N.K.[.:X",
"6X%Xg.m = @ p @.A.'.1X3X+XU.E.H.Q.A.w.h.R.V.v X = z E ~ T s.T.h.~ = X @ e } C O O v #.K.$XqXiXpX6XT.f.f.h..._ T S C L :.v.[.4X9X",
"tX4XE.l $ > U k.[.$X$X.XJ.n.'._.A.} Y q.V.U.=.p 2 N C K u N E d = # = f Y | C = ; R k.`.$XwXpXpXwX&XK.N.N.H.|.+XQ.6.^ 6.H.$XiXaX",
"fXaX<XI 1 q U k.oX;X[.m.4.x.OX[.J.} c ) 6.H.XX7.p = 2 u 2 # > O & k E X.;.E u u Q l.].|.J.E.`.8XyX=XE.A.M.W.7XeX@XG.k.C.!.1XiXfX",
"fXdX2X` e B ,.H.[.OXK.8.@.4.G.G.T.M./ ) ,.L.8XoXQ & O ; ; & & 3 S :.1.>.{ 7 p 3.oX:XXXT.f.:.} ].5XOXL.L.L.|.1X4X$XOX_.^.U.OXqXdX",
"aXyX*X>.d T 6.v.G.H.n.n.8.@.7.b.H.W.h.w.,.S.:X;X9.r s k s k T s.Q.J.s.E v v ,.+X8X:XT.r.{ *.M.OX$X_.).[.#XOX[.=X1X;X@XQ.r.F.1XiX",
"2X2XXXV.R ' M.c.e.u.C.A.7.@.L.).F.P.T.P.y.<.!.XX].7.^ Q W +.8.).1X$XS._ [ C.T.H.E.S.5._ r._.+X*X|.T.C.E.+X+XE._..X=X3X[.3.=.].$X",
"M.R._.{.V.g.N.c.C.A.f.( h ] $XOX5.e.R.XXS.~ w.J.|.].K.b.j.j.D.(.+X.XA.d.h.T.V.w.=.,.r.S.+X2X=X+XR.*.P I 6.].H.v.G.[.3X;XH.-.y.u.",
"0.M.S._.^.c.c.C.H.S.X.u * b H.F.%. .U.=XXXr._ r.T.$X,XOX#X,X0XrX1X_.W.R.U.h.0.' ) w.S.XX-X@X_.P.a.S u > i } ,.@.,.J.+X2X|.l.-.%.",
"g.0.0.V.^.c.M.s.<.| N $ g P t.e.%.! M.+X2X!.` %.E.qXqX<X1X0XiXdXaX4X=X+X_.v.} C ( h.T.R.U.g...S { ( P i * = s T 4.8.v.}._.P.i.l.",
"S.%...s.`.f.&.( V e = = c ) / y > i [ _.=X@Xc.` ].pXuX4X+X@X7XiXaXyX>XXX).L.A.f.Z.^.S.5.( m y , i / <.E p O # k +.} %.i.Y.I.Y./.",
"i.' <.H.|.g. .n 3 @ $ a { ..a X   : z Z.+X#XoX[.8XpXpXeX=X'.L.'.*X=XXXU.s.N.L.`.!.H.C.=.g # .   . y <. .c & ; K @.9.i.M.I.I./.Y.",
"P.%.-.C.M.6.#.f = > , x ( S 6 X   + 2 >.R.|.$X7XeXwX3X;X.XH.8.8.y.c.n.6.,.A.'.[.K.k.(.oX3.* .   . 5 %.P y y I s.T.).!.T.0.p./.%X",
"W...@.<.,.<.w.B e d d d S M g + . + , z *.T._.OX;X+XS.r.z.5.6.u.-.e.^.XX_.J.!.[.K.7.K.=Xy.< : > 6 v B p 2 d ~ Z.XX|.Q.N.a.p./.%X",
"f.U ^ &. .w.h._ C L f i v 6 , + $ w 7 d _ C.).K.Q.S.n.m.J.!.XX:X*XXXXX~.f.} T E +.+.@.@.H i c v b b y 1 i L _ y.s.X.#.&.Z.~. X!.",
"OX2.5.&._ h.U.r.*.S 4 i b , + $ B b s T 5.!.].G.x.A.[.1X8X8XeXwX;XQ.<.C 2 & O & t F ^ V Q h i d V V c b V R E L s B Y | d.@XqX5X",
"5XH.A.y.o.g.h.>.X.x : p H i $ * F v > n c.$X#XK.y.m.1XiXiXtX;X!.:.k 2 o o   o # @ O ; k U * @ , i y y i p w * , d E :.a.N..XyXaX",
"+XU.B.V.r.w.>...o.A > 7 / L g h ! n ; R ^.+XOX[.!.'.rXpXqXL.T q & o     X q n t X     O - o   + : 1 , $ # # * i z E :.a.Q.~.4XqX",
"y.] / @.8.R Z z M Z > a ' ` @.8.` h 1 _ A.E.|.<X8X1XqX1Xz.t O       o 0 T r.6.n o     .         & v d 6 d S V d u d e _ }.;XOXH.",
"< @ & s U t & . # l l M R s.J.J.=.B < P u._.=X=XwX1X!.z.G q & ; ; * q #.V._ w O o 8 8 %       o < w 6 b ) X.x $ X X . 3 r.`.m.T ",
"      X # O o   o a z a e y.@X|.=.s * z q./.{.E..X!.| Q 4.z.4.6.r._ L p.p.S # o t $.$.D - o   o q N P ' [ ( y .     # @ s / w @ ",
"        o 0 ; # O a A 4 = } |.W.=.h > > ) h.P.f.c.A.G.L.'.$X[.}.N.v e >.Q.G.J ; @.].).z.7.k * > z X.B.S.h.X.i O   . = $ 3 *     ",
"    X @ O s T Y 4 4 ( l w 5.!.H.u.] k # m u.^.E.m.].[._.@XrXeX6XH.3 # S v.].j.j m.5XrX1X].9.#.,.' ( N.N.h.,.U p = X X = k O     ",
"          & K :.{ z N u J H.).N.f.{ 5 X , ) h.R.K.).T.!.[.@X7X*XS.;   ; &.H.F.W j.1XpXiX4X`.]._.y.E s.:.] &.5.W p X X 5 &       ",
"          o a X.>.Y n B 3.`..X!.V...>   . 6 [ P.^.P.N.M.m.G.*X;X!.w   * X.S.E.n.y.).wXaXqX_.y.y.y.] @.` B N T j = . X 2 X       ",
"X   X & O   = E 1.d.A.9.9.).*XXXY.o.i .   + m I. X~.T.N.7.4.`.3XOXW q h >.T.+X5X7X=X2XyXqXW.` z F ` ! I t & & o o   # e &     . ",
"k > 3 B K = @ k :.J.$X[.K.1XqX=XU.t.I @   . i h. X%X%X}.k.4.`.8X6X!.H.H.E.{.1XaXdXyX7XwXyX{.-.P ` [ U ! k O           & r O o 2 ",
"k u t n.).~ = * T Q.;X@X1XsXaX$XU.R.0.y . + A -.~.-X6X6X+X@X8X8X8X;XOXG.s.W.qXfXfXaX8X;XwX2XV.t.U._.k.oX].k O         - O.; O u ",
"s N J `.3XN.d O q f.[.'.rXdXiX'.l.H.u./ * * R ( w.XXeX6X:X3X7X4X;X(.j.$.2.(.iXdXdXiX=XE.;X=XI.I.%X9X%X6XpXOX^ 8 o     # D 8 o O ",
"& t ^ `.*XT.E = > ' S.).qXiX0XL.7.-.0.e.v ; / } C K.eX8X;X|.L.).@XL.$.2.K.,XuXiXqX<X].C.XX*XR./.=X9X=X8XuX1X'.9.q     X - r ; O ",
"j j $.L.T.d.N # # P B.T.1X0X$X'.H.=.-.g.R ; N X.,.OXrX$XL.k.2.k.OX].k.z.D.'.,X,X|.C.=.=.P.*X{./.%X&X=X=X.X~.:X`.R = # $ j $.^ G ",
"m.J B } } T i # * n f.G.$X1X+X=X.X6.r.E.%.< > C #.m..X[.G.x.j.G.|.[.H.v.5.6.s.Z.S.4.4.K.#X=X&Xi.i./.%X/.P.Q.^.r.f 5 c f } L.'.[.",
").K 2 2 u ~ G # # K <.m.OX1X4XeX:Xf.r.J.u.v 4 7 u N a.J.C.H.[.:X:X+XZ.0.L 7 f >.J.6.).1X3X@XXXf.I.P.Z.P.P.h.] q O 2 f C | T.@X3X",
"~ - X # 7 _ N o @ c #.K.$XqXiXiX6XU.f.f.g. ._ T L C C :.M.[.4X9X6X%Xg.Z = # s #.A.].1X3X@XJ.T.S.T.V.<.h.T.V.c . = c ~ ~ T s.T.V.",
"= O = f T | C = ; R k.].$XwXpXpXwX@XH.N.N.S.}.OXQ.5.} 5.H.$XuXaXyX4XE.l $ > W 9.[.;X$X[.K.n.'.'.V.| R >.B.T.<.t 2 N C H u N E u ",
"$ k E X.:.E i i Q l.].|.E.T.].8XeX;XE.G.C.!.8XeX@XG.z.A._.<XiXfXdXaX<XR 1 q U x.[.,X[.A.,.x.#X].J.] v ' 5.H.XX4.t 2 2 u 2 # > O ",
"K :.w.>.{ u s =.|.;X+XT.d.&.} [.7XOXL.E.L.oX<X2X$XOX].^.T.+XqXdXfXsX4X` 6 H ,.H.[.OXH.7.@.4.K.G.Q.h./ ) -.E.7XoXT # O = ; & * q ",
"Q.J.a.R b h ,.+X8X2XT.r.{ :.M.oX#X_.(.[.#XOX[.$X1X;X@XU.e.C.<XiXsXyX*X-.d R 8.v.G.H.n.n.7.$.7.x.H.~.h.w.,.A.:X:X9.r p n s k T s.",
";X=XH._ ' N.T.H.J.S.1.( s.~.+X#X|.T.C.E.#X#XT._..X$X3X`.7.=.].*X4X:XXXV.P ' N.c.y.s.C.V.7.%.E.(.C.S.Q.S.y.<.!.XX[.7.^ Q W +.6.).",
"OX.XA.d.N.T.B.w.<.4.r.S.XX3X=X@XR.*.P I e._.H.M.A..X3X1XH.=.y.l.M.W./.}.V.M.N.c.c.S.f._ g ] =XoX5.6.Q.XXS._ <.T.|.].K.k.j.j.m.(.",
"1X_.^.R.U.h.0.' ) w.P.XX=X@X~.P.a.S u > i } =.@.4.K.@X:X|.u.-.*.0.g.Z.}.W.c.c.C.H.S.X.t = N S.F.@.@.P.=X+Xr./ r.E.$X,XOX#X<X5XrX",
"aX6X=X+X_.c.} A ( h.T.E.P.g...S { ( P i & ; k T 4.8.v.}._.P.i.g.f.0.0.Z.^.c.c.u.<. .c = i R r.r.%._ u.*X4X!.` #.E.qXqX=X<X0XiXdX",
"aXyX:XXX).J.C.f.V.~.H.e.( V 6 , a / <.R s O O k +.] ..i.I.Y.I.~.P.%...s.}.f.&.( V u > = c ( / 7 > i [ _.=X+Xn.} `.pXiX4XOX$X0XuX",
"*X*XXXJ.s.v.E.[.E.H.F.%.g # . . . 7 <. .v & = K #.y.d.V.V.R./.I.i.` -.H.|.c. .b 3 O $ a { { a .   $ x S.#X*X|.].qXpXiXeX;X'.L.'.",
"y.c.n.y.,.C.)..XG.z.).oX3.- . . . 1 %.R w y I d.T.^.!.U.w.i./. XP.%.<.C.h.6.%.d = > , M ) I y .   + , >.W.{.#X5XeXwX6X=X.XA.8.8.",
"0.8.W.XX`.K.!.[.G.7.K.$Xy.< : : 6 v B p 2 d ! Z.|.|.!.N.a.p./.-X^. .@.<.,.,.w.B 5 l d d V b l + . + : x *.T.].OX=X&XS.r.s.5.6.s.",
"*XXXXX^.d.} T ~ @.+.+.@.F i v c b b y 5 a L _ y.s.#.#.:.Z.}.[.!.f.U ^ &.X.1.h._ A L l y z 6 1 + # 7 7 d ( C.).L.E.A.c.m.E.W.XX2X",
";XT.>.V 3 # O & t J O.H P h i d V Z v v V E R L s N Y | d.@X8X5XoX=.5.:.( d.U.r.:.S 5 i n : + $ V B d T 5.).].D.n.C.[.1X7XqXeX9X",
":.k 2 O     O & O O ; k U - @ , i 6 y p s 5 = , a E <.a.g.}.uXaX0XK.C.r.&.h.h.<.X.v : d C g + * H v = B c.$X#XK.s.D.4XiXaXeX=X!.",
"#       O q k t O     O ; .   + $ 1 , $ # # $ i z / :.a.Q.~.3XqXoXH.V.V.t.w.*.[ o.Z : y E S l h Q n = R !.+XoXoXL.[.rXiXqXK.T 8 ",
"    o 8 T r.5.k O   o           & l i 7 l V V l i d e } `.;XOXK.y.' / &.8.R S z b Z 2 l } ` %.5.] j < _ S.E.|.<X8X1X8X;Xz.t O X ",
"; & q &.N.{ 5 # O - 8 %       . 9 p 6 x ) o.b & . X X 3 1.`.V.T 3 # # j J t # . # l l M Y s.J.J.,.H < P u._.*X=XeX1XL.z.J 0 - & ",
"s.` L p.p.S @   r $.$.D 8 O   o 0 b P ' { ) y o     # # g R w O       o # O     X a z a e s.+X[.=.s $ v 0./.XXE..X~.| Q 7.z.4.6.",
"M.z e >.T.F.F 8 @.`.(.z.$.j - ; c X.V.P.h...i .   o = $ 3 * o           o 8 = # O f S 7 = } XXE.=.k = > ( h.T.u.x.A.F.J.].1X.X`.",
"K.3 # S N.].j.h n.0XwX1X[.6.@.-.' ( v.V.g.w.L t = o X = l @         o @ O s ~ T 4 4 ` d w 5.E.A.y.} d $ m q./.W.m.].[.'.@XrXeX7X",
"H.=   ; :.J.H.W x.1XpXiX4X}.`._.r.! s.#.` %.5.Q t . X 5 *                 & V >.{ z N u K H.).C.g.{ 4 + , ) h.W.J.!.J.~.[.@X8X@X",
"!.q   ; ..S.E.n.y.].eXpX8X_.r.y.y.] @.] n n T j =   O 2 O                 o f X.>.Y c V =.].+XT.Z.[ >   X 6 { B.!.U.V.M.m.F.$X;X",
".XW q k >.R.#X5X5X1X2XyXqXW._ v H ] ! R e # & o o   # y &     o o o o & O   = E w.a.C.9.8.).*X+XP.*.i .   + m I. X~.T.N.7.,.`.:X",
"5XE.J.J.E. X4XaXsXeX7XeXyXXX-.E ' ] U ^ k O         . # r O X 3 f 1 3 B K = # k ,.K.$X[.K.1XqX=XU.t.I @   . i h. XXX%X}.z.4.`.8X",
"8X;X.XA.y.W.qXdXfXsX7X=X9X2Xh.t.P.^.c.[.'.B O         & ^ 0 O 7 k u t n.).~ $ = T E.1X#X4XaXaX=XU.Y.0.6 . @ C >./.-X6X3X@X@X7X9X"
};
